<?xml version="1.0" encoding="UTF-8" standalone="no"?>
<!DOCTYPE svg PUBLIC "-//W3C//DTD SVG 1.1//EN" "http://www.w3.org/Graphics/SVG/1.1/DTD/svg11.dtd">
<svg width="100%" height="100%" viewBox="0 0 320 120" version="1.1" xmlns="http://www.w3.org/2000/svg" xmlns:xlink="http://www.w3.org/1999/xlink" xml:space="preserve" xmlns:serif="http://www.serif.com/" style="fill-rule:evenodd;clip-rule:evenodd;stroke-linejoin:round;stroke-miterlimit:10;">
    <g id="_8-5-4" serif:id="8-5/4" transform="matrix(1,0,0,1,-120,-240)">
        <rect x="120" y="240" width="320" height="120" style="fill:none;"/>
        <g id="ac_source" transform="matrix(1,0,0,1,-325.029,-1822.24)">
            <g transform="matrix(1.12279e-16,1.83366,-1,6.12323e-17,2707.03,949.169)">
                <path d="M617.929,2122L661.557,2122" style="fill:none;stroke:black;stroke-width:2.03px;"/>
            </g>
            <g transform="matrix(1,0,0,1,-10.2809,0.23706)">
                <g id="AC-source" serif:id="AC source">
                    <circle cx="595.31" cy="2122" r="22.619" style="fill:white;stroke:black;stroke-width:2.71px;stroke-linejoin:miter;stroke-miterlimit:1.5;"/>
                </g>
                <g transform="matrix(0.162469,0,0,0.199088,562.348,2091.62)">
                    <path d="M113.633,155.876L115.411,154.103L117.184,152.335L118.961,150.583L120.734,148.85L122.511,147.142L124.289,145.473L126.061,143.839L127.839,142.255L129.611,140.725L131.389,139.254L133.166,137.848L134.939,136.511L136.717,135.253L138.489,134.07L140.267,132.976L142.044,131.971L143.817,131.06L145.594,130.243L147.367,129.53L149.144,128.916L150.917,128.411L152.695,128.01L154.472,127.717L156.245,127.539L158.022,127.47L159.795,127.509L161.572,127.663L163.35,127.92L165.122,128.292L166.9,128.772L168.673,129.356L170.45,130.045L172.228,130.832L174,131.718L175.778,132.698L177.55,133.773L179.328,134.932L181.105,136.169L182.878,137.486L184.656,138.873L186.428,140.328L188.206,141.844L189.983,143.413L191.756,145.032L193.533,146.696L195.306,148.389L197.083,150.117L198.856,151.865L200.633,153.633L202.411,155.405L204.184,157.178L205.961,158.95L207.734,160.708L209.511,162.446L211.289,164.159L213.061,165.843L214.839,167.482L216.611,169.081L218.389,170.626L220.167,172.111L221.939,173.537L223.717,174.894L225.489,176.171L227.267,177.374M227.267,177.374L229.044,178.493L230.817,179.523L232.594,180.459L234.367,181.301L236.145,182.044L237.922,182.682L239.695,183.217L241.472,183.648L243.245,183.965L245.022,184.178L246.8,184.277L248.572,184.262L250.35,184.143L252.123,183.91L253.9,183.569L255.678,183.118L257.45,182.559L259.228,181.9L261,181.137L262.778,180.276L264.55,179.32L266.328,178.271L268.105,177.137L269.878,175.919L271.656,174.622L273.428,173.255L275.206,171.814L276.983,170.314L278.756,168.759L280.533,167.15L282.306,165.501L284.083,163.813M284.083,163.813L285.861,162.095L287.634,160.352L289.411,158.589L291.184,156.816M291.184,156.816L292.129,155.876" style="fill:none;fill-rule:nonzero;stroke:black;stroke-width:16.51px;"/>
                </g>
            </g>
        </g>
        <g id="motor_1p" transform="matrix(1.25,0,0,1.25,-788.75,-2433.75)">
            <g transform="matrix(4.89859e-17,0.8,-1,6.12323e-17,3138,1426.2)">
                <path d="M911,2187L991,2187" style="fill:none;stroke:black;stroke-width:2.65px;"/>
            </g>
            <g>
                <circle cx="951" cy="2187" r="18" style="fill:white;stroke:black;stroke-width:2.17px;stroke-linecap:square;stroke-linejoin:miter;stroke-miterlimit:1.5;"/>
                <g transform="matrix(0.491834,0,0,0.491834,510.484,1634.71)">
                    <g transform="matrix(41.8814,0,0,41.8814,912.888,1138)">
                    </g>
                    <text x="878px" y="1138px" style="font-family:'Helvetica-Bold', 'Helvetica';font-weight:700;font-size:41.881px;">M</text>
                </g>
            </g>
        </g>
        <path d="M260,340L400,340" style="fill:none;stroke:black;stroke-width:3px;"/>
        <path d="M400,260L260,260" style="fill:none;stroke:black;stroke-width:3px;"/>
        <g transform="matrix(1,0,0,1,-25,11.4043)">
            <g transform="matrix(12,0,0,12,245.061,278.596)">
            </g>
            <text x="160px" y="278.596px" style="font-family:'ArialMT', 'Arial', sans-serif;font-size:12px;">{display(P<tspan x="211.814px 215.148px " y="278.596px 278.596px ">,&apos;</tspan>kW&apos;)}</text>
        </g>
        <g transform="matrix(1,0,0,1,-25,37.7435)">
            <g transform="matrix(12,0,0,12,224.066,278.596)">
            </g>
            <text x="160px" y="278.596px" style="font-family:'ArialMT', 'Arial', sans-serif;font-size:12px;">{pf} Lagging</text>
        </g>
    </g>
</svg>
